<?xml version="1.0" encoding="utf-8" ?>
<svg baseProfile="full" height="128px" version="1.1" viewBox="0 0 128 128" width="128px" xmlns="http://www.w3.org/2000/svg" xmlns:ev="http://www.w3.org/2001/xml-events" xmlns:xlink="http://www.w3.org/1999/xlink"><defs /><path d="M 91.00,112.50 L 90.00,112.50 L 89.00,112.50 L 88.00,112.50 L 87.00,112.50 L 86.00,112.50 L 85.00,112.50 L 84.00,112.50 L 83.00,112.50 L 82.00,112.50 L 81.00,112.50 L 80.00,112.50 L 79.00,112.50 L 78.00,112.50 L 77.00,112.50 L 76.00,112.50 L 75.00,112.50 L 74.00,112.50 L 73.00,112.50 L 72.00,112.50 L 71.00,112.50 L 70.00,112.50 L 69.00,112.50 L 68.00,112.50 L 67.00,112.50 L 66.00,112.50 L 65.00,112.50 L 64.00,112.50 L 63.00,112.50 L 62.00,112.50 L 61.00,112.50 L 60.00,112.50 L 59.00,112.50 L 58.00,112.50 L 57.00,112.50 L 56.00,112.50 L 55.00,112.50 L 54.00,112.50 L 53.00,112.50 L 52.00,112.50 L 51.00,112.50 L 50.00,112.50 L 49.00,112.50 L 48.00,112.50 L 47.00,112.50 L 46.00,112.50 L 45.00,112.50 L 44.00,112.50 L 43.00,112.50 L 42.00,112.50 L 41.00,112.50 L 40.00,112.50 L 39.00,112.50 L 38.00,112.50 L 37.00,112.50 L 36.00,112.50 L 35.50,112.00 L 35.00,111.50 L 34.50,111.00 L 34.50,110.00 L 35.00,109.50 L 35.50,109.00 L 35.50,108.00 L 35.50,107.00 L 35.50,106.00 L 35.50,105.00 L 35.50,104.00 L 35.50,103.00 L 35.50,102.00 L 35.50,101.00 L 36.00,100.50 L 36.50,100.00 L 36.50,99.00 L 36.50,98.00 L 36.50,97.00 L 36.50,96.00 L 36.50,95.00 L 36.50,94.00 L 36.50,93.00 L 36.50,92.00 L 36.50,91.00 L 37.00,90.50 L 37.50,90.00 L 37.50,89.00 L 37.50,88.00 L 37.50,87.00 L 37.00,86.50 L 36.00,86.50 L 35.00,86.50 L 34.00,86.50 L 33.00,86.50 L 32.00,86.50 L 31.00,86.50 L 30.00,86.50 L 29.00,86.50 L 28.00,86.50 L 27.00,86.50 L 26.00,86.50 L 25.00,86.50 L 24.00,86.50 L 23.00,86.50 L 22.00,86.50 L 21.50,86.00 L 21.00,85.50 L 20.00,85.50 L 19.50,85.00 L 19.00,84.50 L 18.50,84.00 L 18.00,83.50 L 17.50,83.00 L 17.50,82.00 L 17.00,81.50 L 16.50,81.00 L 16.50,80.00 L 16.50,79.00 L 16.50,78.00 L 16.50,77.00 L 16.50,76.00 L 16.50,75.00 L 16.50,74.00 L 16.50,73.00 L 16.50,72.00 L 16.50,71.00 L 16.50,70.00 L 16.50,69.00 L 16.50,68.00 L 16.50,67.00 L 16.50,66.00 L 16.50,65.00 L 16.50,64.00 L 16.50,63.00 L 16.50,62.00 L 16.50,61.00 L 16.50,60.00 L 16.50,59.00 L 16.50,58.00 L 16.50,57.00 L 16.50,56.00 L 16.50,55.00 L 16.50,54.00 L 16.50,53.00 L 16.50,52.00 L 16.50,51.00 L 16.50,50.00 L 16.50,49.00 L 16.50,48.00 L 16.50,47.00 L 16.50,46.00 L 16.50,45.00 L 16.50,44.00 L 16.50,43.00 L 16.50,42.00 L 17.00,41.50 L 17.50,41.00 L 17.50,40.00 L 18.00,39.50 L 18.50,39.00 L 19.00,38.50 L 19.50,38.00 L 20.00,37.50 L 21.00,37.50 L 21.50,37.00 L 22.00,36.50 L 23.00,36.50 L 24.00,36.50 L 25.00,36.50 L 26.00,36.50 L 27.00,36.50 L 28.00,36.50 L 29.00,36.50 L 30.00,36.50 L 31.00,36.50 L 32.00,36.50 L 32.50,36.00 L 32.50,35.00 L 32.50,34.00 L 32.50,33.00 L 32.50,32.00 L 32.50,31.00 L 32.50,30.00 L 32.50,29.00 L 32.50,28.00 L 32.50,27.00 L 32.50,26.00 L 32.50,25.00 L 32.50,24.00 L 32.50,23.00 L 32.50,22.00 L 32.50,21.00 L 32.50,20.00 L 33.00,19.50 L 33.50,19.00 L 33.50,18.00 L 33.50,17.00 L 34.00,16.50 L 34.50,16.00 L 35.00,15.50 L 36.00,15.50 L 36.50,15.00 L 37.00,14.50 L 38.00,14.50 L 39.00,14.50 L 40.00,14.50 L 41.00,14.50 L 42.00,14.50 L 43.00,14.50 L 44.00,14.50 L 45.00,14.50 L 46.00,14.50 L 47.00,14.50 L 48.00,14.50 L 49.00,14.50 L 50.00,14.50 L 51.00,14.50 L 52.00,14.50 L 53.00,14.50 L 54.00,14.50 L 55.00,14.50 L 56.00,14.50 L 57.00,14.50 L 58.00,14.50 L 59.00,14.50 L 60.00,14.50 L 61.00,14.50 L 62.00,14.50 L 63.00,14.50 L 64.00,14.50 L 65.00,14.50 L 66.00,14.50 L 67.00,14.50 L 68.00,14.50 L 69.00,14.50 L 70.00,14.50 L 71.00,14.50 L 72.00,14.50 L 73.00,14.50 L 74.00,14.50 L 75.00,14.50 L 76.00,14.50 L 77.00,14.50 L 78.00,14.50 L 79.00,14.50 L 80.00,14.50 L 81.00,14.50 L 82.00,14.50 L 83.00,14.50 L 84.00,14.50 L 85.00,14.50 L 86.00,14.50 L 87.00,14.50 L 88.00,14.50 L 89.00,14.50 L 90.00,14.50 L 90.50,15.00 L 91.00,15.50 L 92.00,15.50 L 92.50,16.00 L 93.00,16.50 L 93.50,17.00 L 93.50,18.00 L 94.00,18.50 L 94.50,19.00 L 94.50,20.00 L 94.50,21.00 L 94.50,22.00 L 94.50,23.00 L 94.50,24.00 L 94.50,25.00 L 94.50,26.00 L 94.50,27.00 L 94.50,28.00 L 94.50,29.00 L 94.50,30.00 L 94.50,31.00 L 94.50,32.00 L 94.50,33.00 L 94.50,34.00 L 94.50,35.00 L 94.50,36.00 L 95.00,36.50 L 96.00,36.50 L 97.00,36.50 L 98.00,36.50 L 99.00,36.50 L 100.00,36.50 L 101.00,36.50 L 102.00,36.50 L 103.00,36.50 L 104.00,36.50 L 105.00,36.50 L 105.50,37.00 L 106.00,37.50 L 107.00,37.50 L 107.50,38.00 L 108.00,38.50 L 108.50,39.00 L 109.00,39.50 L 109.50,40.00 L 109.50,41.00 L 110.00,41.50 L 110.50,42.00 L 110.50,43.00 L 110.50,44.00 L 110.50,45.00 L 110.50,46.00 L 110.50,47.00 L 110.50,48.00 L 110.50,49.00 L 110.50,50.00 L 110.50,51.00 L 110.50,52.00 L 110.50,53.00 L 110.50,54.00 L 110.50,55.00 L 110.50,56.00 L 110.50,57.00 L 110.50,58.00 L 110.50,59.00 L 110.50,60.00 L 110.50,61.00 L 110.50,62.00 L 110.50,63.00 L 110.50,64.00 L 110.50,65.00 L 110.50,66.00 L 110.50,67.00 L 110.50,68.00 L 110.50,69.00 L 110.50,70.00 L 110.50,71.00 L 110.50,72.00 L 110.50,73.00 L 110.50,74.00 L 110.50,75.00 L 110.50,76.00 L 110.50,77.00 L 110.50,78.00 L 110.50,79.00 L 110.50,80.00 L 110.50,81.00 L 110.00,81.50 L 109.50,82.00 L 109.50,83.00 L 109.00,83.50 L 108.50,84.00 L 108.00,84.50 L 107.50,85.00 L 107.00,85.50 L 106.00,85.50 L 105.50,86.00 L 105.00,86.50 L 104.00,86.50 L 103.00,86.50 L 102.00,86.50 L 101.00,86.50 L 100.00,86.50 L 99.00,86.50 L 98.00,86.50 L 97.00,86.50 L 96.00,86.50 L 95.00,86.50 L 94.00,86.50 L 93.00,86.50 L 92.00,86.50 L 91.00,86.50 L 90.00,86.50 L 89.50,87.00 L 89.50,88.00 L 89.50,89.00 L 89.50,90.00 L 90.00,90.50 L 90.50,91.00 L 90.50,92.00 L 90.50,93.00 L 90.50,94.00 L 90.50,95.00 L 90.50,96.00 L 90.50,97.00 L 90.50,98.00 L 90.50,99.00 L 91.00,99.50 L 91.50,100.00 L 91.50,101.00 L 91.50,102.00 L 91.50,103.00 L 91.50,104.00 L 91.50,105.00 L 91.50,106.00 L 91.50,107.00 L 91.50,108.00 L 91.50,109.00 L 92.00,109.50 L 92.50,110.00 L 92.50,111.00 L 92.00,111.50 L 91.50,112.00 L 91.00,112.50 Z M 90.50,36.00 L 90.50,35.00 L 90.50,34.00 L 90.50,33.00 L 90.50,32.00 L 90.50,31.00 L 90.50,30.00 L 90.50,29.00 L 90.50,28.00 L 90.50,27.00 L 90.50,26.00 L 90.50,25.00 L 90.50,24.00 L 90.50,23.00 L 90.50,22.00 L 90.50,21.00 L 90.50,20.00 L 90.50,19.00 L 90.00,18.50 L 89.50,18.00 L 89.00,17.50 L 88.00,17.50 L 87.00,17.50 L 86.00,17.50 L 85.00,17.50 L 84.00,17.50 L 83.00,17.50 L 82.00,17.50 L 81.00,17.50 L 80.00,17.50 L 79.00,17.50 L 78.00,17.50 L 77.00,17.50 L 76.00,17.50 L 75.00,17.50 L 74.00,17.50 L 73.00,17.50 L 72.00,17.50 L 71.00,17.50 L 70.00,17.50 L 69.00,17.50 L 68.00,17.50 L 67.00,17.50 L 66.00,17.50 L 65.00,17.50 L 64.00,17.50 L 63.00,17.50 L 62.00,17.50 L 61.00,17.50 L 60.00,17.50 L 59.00,17.50 L 58.00,17.50 L 57.00,17.50 L 56.00,17.50 L 55.00,17.50 L 54.00,17.50 L 53.00,17.50 L 52.00,17.50 L 51.00,17.50 L 50.00,17.50 L 49.00,17.50 L 48.00,17.50 L 47.00,17.50 L 46.00,17.50 L 45.00,17.50 L 44.00,17.50 L 43.00,17.50 L 42.00,17.50 L 41.00,17.50 L 40.00,17.50 L 39.00,17.50 L 38.50,18.00 L 38.00,18.50 L 37.00,18.50 L 36.50,19.00 L 36.50,20.00 L 36.50,21.00 L 36.50,22.00 L 36.50,23.00 L 36.50,24.00 L 36.50,25.00 L 36.50,26.00 L 36.50,27.00 L 36.50,28.00 L 36.50,29.00 L 36.50,30.00 L 36.50,31.00 L 36.50,32.00 L 36.50,33.00 L 36.50,34.00 L 36.50,35.00 L 36.50,36.00 L 37.00,36.50 L 38.00,36.50 L 39.00,36.50 L 40.00,36.50 L 41.00,36.50 L 42.00,36.50 L 43.00,36.50 L 44.00,36.50 L 45.00,36.50 L 46.00,36.50 L 47.00,36.50 L 48.00,36.50 L 49.00,36.50 L 50.00,36.50 L 51.00,36.50 L 52.00,36.50 L 53.00,36.50 L 54.00,36.50 L 55.00,36.50 L 56.00,36.50 L 57.00,36.50 L 58.00,36.50 L 59.00,36.50 L 60.00,36.50 L 61.00,36.50 L 62.00,36.50 L 63.00,36.50 L 64.00,36.50 L 65.00,36.50 L 66.00,36.50 L 67.00,36.50 L 68.00,36.50 L 69.00,36.50 L 70.00,36.50 L 71.00,36.50 L 72.00,36.50 L 73.00,36.50 L 74.00,36.50 L 75.00,36.50 L 76.00,36.50 L 77.00,36.50 L 78.00,36.50 L 79.00,36.50 L 80.00,36.50 L 81.00,36.50 L 82.00,36.50 L 83.00,36.50 L 84.00,36.50 L 85.00,36.50 L 86.00,36.50 L 87.00,36.50 L 88.00,36.50 L 89.00,36.50 L 90.00,36.50 L 90.50,36.00 Z M 104.50,83.00 L 105.00,82.50 L 105.50,82.00 L 106.00,81.50 L 106.50,81.00 L 106.50,80.00 L 107.00,79.50 L 107.50,79.00 L 107.50,78.00 L 107.50,77.00 L 107.50,76.00 L 107.50,75.00 L 107.50,74.00 L 107.50,73.00 L 107.50,72.00 L 107.50,71.00 L 107.50,70.00 L 107.50,69.00 L 107.50,68.00 L 107.50,67.00 L 107.50,66.00 L 107.50,65.00 L 107.50,64.00 L 107.50,63.00 L 107.50,62.00 L 107.50,61.00 L 107.50,60.00 L 107.50,59.00 L 107.50,58.00 L 107.50,57.00 L 107.50,56.00 L 107.50,55.00 L 107.50,54.00 L 107.50,53.00 L 107.50,52.00 L 107.50,51.00 L 107.50,50.00 L 107.50,49.00 L 107.50,48.00 L 107.50,47.00 L 107.50,46.00 L 107.50,45.00 L 107.50,44.00 L 107.00,43.50 L 106.50,43.00 L 106.50,42.00 L 106.00,41.50 L 105.50,41.00 L 105.00,40.50 L 104.00,40.50 L 103.50,40.00 L 103.00,39.50 L 102.00,39.50 L 101.00,39.50 L 100.00,39.50 L 99.00,39.50 L 98.00,39.50 L 97.00,39.50 L 96.00,39.50 L 95.00,39.50 L 94.00,39.50 L 93.00,39.50 L 92.00,39.50 L 91.00,39.50 L 90.00,39.50 L 89.00,39.50 L 88.00,39.50 L 87.00,39.50 L 86.00,39.50 L 85.00,39.50 L 84.00,39.50 L 83.00,39.50 L 82.00,39.50 L 81.00,39.50 L 80.00,39.50 L 79.00,39.50 L 78.00,39.50 L 77.00,39.50 L 76.00,39.50 L 75.00,39.50 L 74.00,39.50 L 73.00,39.50 L 72.00,39.50 L 71.00,39.50 L 70.00,39.50 L 69.00,39.50 L 68.00,39.50 L 67.00,39.50 L 66.00,39.50 L 65.00,39.50 L 64.00,39.50 L 63.00,39.50 L 62.00,39.50 L 61.00,39.50 L 60.00,39.50 L 59.00,39.50 L 58.00,39.50 L 57.00,39.50 L 56.00,39.50 L 55.00,39.50 L 54.00,39.50 L 53.00,39.50 L 52.00,39.50 L 51.00,39.50 L 50.00,39.50 L 49.00,39.50 L 48.00,39.50 L 47.00,39.50 L 46.00,39.50 L 45.00,39.50 L 44.00,39.50 L 43.00,39.50 L 42.00,39.50 L 41.00,39.50 L 40.00,39.50 L 39.00,39.50 L 38.00,39.50 L 37.00,39.50 L 36.00,39.50 L 35.00,39.50 L 34.00,39.50 L 33.00,39.50 L 32.00,39.50 L 31.00,39.50 L 30.00,39.50 L 29.00,39.50 L 28.00,39.50 L 27.00,39.50 L 26.00,39.50 L 25.00,39.50 L 24.00,39.50 L 23.50,40.00 L 23.00,40.50 L 22.00,40.50 L 21.50,41.00 L 21.00,41.50 L 20.50,42.00 L 20.50,43.00 L 20.00,43.50 L 19.50,44.00 L 19.50,45.00 L 19.50,46.00 L 19.50,47.00 L 19.50,48.00 L 19.50,49.00 L 19.50,50.00 L 19.50,51.00 L 19.50,52.00 L 19.50,53.00 L 19.50,54.00 L 19.50,55.00 L 19.50,56.00 L 19.50,57.00 L 19.50,58.00 L 19.50,59.00 L 19.50,60.00 L 19.50,61.00 L 19.50,62.00 L 19.50,63.00 L 19.50,64.00 L 19.50,65.00 L 19.50,66.00 L 19.50,67.00 L 19.50,68.00 L 19.50,69.00 L 19.50,70.00 L 19.50,71.00 L 19.50,72.00 L 19.50,73.00 L 19.50,74.00 L 19.50,75.00 L 19.50,76.00 L 19.50,77.00 L 19.50,78.00 L 19.50,79.00 L 20.00,79.50 L 20.50,80.00 L 20.50,81.00 L 21.00,81.50 L 21.50,82.00 L 22.00,82.50 L 22.50,83.00 L 23.00,83.50 L 24.00,83.50 L 25.00,83.50 L 26.00,83.50 L 27.00,83.50 L 28.00,83.50 L 29.00,83.50 L 30.00,83.50 L 31.00,83.50 L 32.00,83.50 L 33.00,83.50 L 34.00,83.50 L 35.00,83.50 L 36.00,83.50 L 37.00,83.50 L 37.50,83.00 L 37.50,82.00 L 37.50,81.00 L 38.00,80.50 L 38.50,80.00 L 38.00,79.50 L 37.00,79.50 L 36.00,79.50 L 35.00,79.50 L 34.00,79.50 L 33.00,79.50 L 32.50,79.00 L 32.00,78.50 L 31.50,78.00 L 31.50,77.00 L 31.50,76.00 L 31.50,75.00 L 31.50,74.00 L 31.50,73.00 L 31.50,72.00 L 31.50,71.00 L 31.50,70.00 L 31.50,69.00 L 31.50,68.00 L 31.50,67.00 L 31.50,66.00 L 32.00,65.50 L 32.50,65.00 L 33.00,64.50 L 33.50,64.00 L 34.00,63.50 L 35.00,63.50 L 36.00,63.50 L 37.00,63.50 L 38.00,63.50 L 39.00,63.50 L 40.00,63.50 L 41.00,63.50 L 42.00,63.50 L 43.00,63.50 L 44.00,63.50 L 45.00,63.50 L 46.00,63.50 L 47.00,63.50 L 48.00,63.50 L 49.00,63.50 L 50.00,63.50 L 51.00,63.50 L 52.00,63.50 L 53.00,63.50 L 54.00,63.50 L 55.00,63.50 L 56.00,63.50 L 57.00,63.50 L 58.00,63.50 L 59.00,63.50 L 60.00,63.50 L 61.00,63.50 L 62.00,63.50 L 63.00,63.50 L 64.00,63.50 L 65.00,63.50 L 66.00,63.50 L 67.00,63.50 L 68.00,63.50 L 69.00,63.50 L 70.00,63.50 L 71.00,63.50 L 72.00,63.50 L 73.00,63.50 L 74.00,63.50 L 75.00,63.50 L 76.00,63.50 L 77.00,63.50 L 78.00,63.50 L 79.00,63.50 L 80.00,63.50 L 81.00,63.50 L 82.00,63.50 L 83.00,63.50 L 84.00,63.50 L 85.00,63.50 L 86.00,63.50 L 87.00,63.50 L 88.00,63.50 L 89.00,63.50 L 90.00,63.50 L 91.00,63.50 L 92.00,63.50 L 93.00,63.50 L 93.50,64.00 L 94.00,64.50 L 94.50,65.00 L 95.00,65.50 L 95.50,66.00 L 95.50,67.00 L 95.50,68.00 L 95.50,69.00 L 95.50,70.00 L 95.50,71.00 L 95.50,72.00 L 95.50,73.00 L 95.50,74.00 L 95.50,75.00 L 95.50,76.00 L 95.50,77.00 L 95.50,78.00 L 95.00,78.50 L 94.50,79.00 L 94.00,79.50 L 93.00,79.50 L 92.00,79.50 L 91.00,79.50 L 90.00,79.50 L 89.00,79.50 L 88.50,80.00 L 89.00,80.50 L 89.50,81.00 L 89.50,82.00 L 89.50,83.00 L 90.00,83.50 L 91.00,83.50 L 92.00,83.50 L 93.00,83.50 L 94.00,83.50 L 95.00,83.50 L 96.00,83.50 L 97.00,83.50 L 98.00,83.50 L 99.00,83.50 L 100.00,83.50 L 101.00,83.50 L 102.00,83.50 L 103.00,83.50 L 104.00,83.50 L 104.50,83.00 Z M 91.00,50.50 L 90.00,50.50 L 89.50,50.00 L 89.00,49.50 L 88.50,49.00 L 88.50,48.00 L 88.00,47.50 L 87.50,47.00 L 88.00,46.50 L 88.50,46.00 L 89.00,45.50 L 89.50,45.00 L 90.00,44.50 L 91.00,44.50 L 91.50,45.00 L 92.00,45.50 L 92.50,46.00 L 93.00,46.50 L 93.50,47.00 L 93.50,48.00 L 93.00,48.50 L 92.50,49.00 L 92.00,49.50 L 91.50,50.00 L 91.00,50.50 Z M 100.00,50.50 L 99.50,50.00 L 99.00,49.50 L 98.00,49.50 L 97.50,49.00 L 97.50,48.00 L 97.50,47.00 L 97.50,46.00 L 98.00,45.50 L 98.50,45.00 L 99.00,44.50 L 100.00,44.50 L 101.00,44.50 L 101.50,45.00 L 102.00,45.50 L 102.50,46.00 L 102.50,47.00 L 102.50,48.00 L 102.50,49.00 L 102.00,49.50 L 101.00,49.50 L 100.50,50.00 L 100.00,50.50 Z M 91.50,76.00 L 92.00,75.50 L 92.50,75.00 L 92.00,74.50 L 91.50,74.00 L 91.50,73.00 L 91.50,72.00 L 91.50,71.00 L 91.50,70.00 L 91.50,69.00 L 92.00,68.50 L 92.50,68.00 L 92.00,67.50 L 91.50,67.00 L 91.00,66.50 L 90.00,66.50 L 89.00,66.50 L 88.00,66.50 L 87.00,66.50 L 86.00,66.50 L 85.00,66.50 L 84.00,66.50 L 83.00,66.50 L 82.00,66.50 L 81.00,66.50 L 80.00,66.50 L 79.00,66.50 L 78.00,66.50 L 77.00,66.50 L 76.00,66.50 L 75.00,66.50 L 74.00,66.50 L 73.00,66.50 L 72.00,66.50 L 71.00,66.50 L 70.00,66.50 L 69.00,66.50 L 68.00,66.50 L 67.00,66.50 L 66.00,66.50 L 65.00,66.50 L 64.00,66.50 L 63.00,66.50 L 62.00,66.50 L 61.00,66.50 L 60.00,66.50 L 59.00,66.50 L 58.00,66.50 L 57.00,66.50 L 56.00,66.50 L 55.00,66.50 L 54.00,66.50 L 53.00,66.50 L 52.00,66.50 L 51.00,66.50 L 50.00,66.50 L 49.00,66.50 L 48.00,66.50 L 47.00,66.50 L 46.00,66.50 L 45.00,66.50 L 44.00,66.50 L 43.00,66.50 L 42.00,66.50 L 41.00,66.50 L 40.00,66.50 L 39.00,66.50 L 38.00,66.50 L 37.00,66.50 L 36.00,66.50 L 35.50,67.00 L 35.00,67.50 L 34.50,68.00 L 35.00,68.50 L 35.50,69.00 L 35.00,69.50 L 34.50,70.00 L 34.50,71.00 L 34.50,72.00 L 34.50,73.00 L 35.00,73.50 L 35.50,74.00 L 35.00,74.50 L 34.50,75.00 L 35.00,75.50 L 35.50,76.00 L 36.00,76.50 L 36.50,76.00 L 37.00,75.50 L 38.00,75.50 L 38.50,75.00 L 38.50,74.00 L 38.50,73.00 L 38.50,72.00 L 38.50,71.00 L 39.00,70.50 L 40.00,70.50 L 41.00,70.50 L 42.00,70.50 L 43.00,70.50 L 44.00,70.50 L 45.00,70.50 L 46.00,70.50 L 47.00,70.50 L 48.00,70.50 L 49.00,70.50 L 50.00,70.50 L 51.00,70.50 L 52.00,70.50 L 53.00,70.50 L 54.00,70.50 L 55.00,70.50 L 56.00,70.50 L 57.00,70.50 L 58.00,70.50 L 59.00,70.50 L 60.00,70.50 L 61.00,70.50 L 62.00,70.50 L 63.00,70.50 L 64.00,70.50 L 65.00,70.50 L 66.00,70.50 L 67.00,70.50 L 68.00,70.50 L 69.00,70.50 L 70.00,70.50 L 71.00,70.50 L 72.00,70.50 L 73.00,70.50 L 74.00,70.50 L 75.00,70.50 L 76.00,70.50 L 77.00,70.50 L 78.00,70.50 L 79.00,70.50 L 80.00,70.50 L 81.00,70.50 L 82.00,70.50 L 83.00,70.50 L 84.00,70.50 L 85.00,70.50 L 86.00,70.50 L 87.00,70.50 L 88.00,70.50 L 88.50,71.00 L 88.50,72.00 L 88.50,73.00 L 88.50,74.00 L 88.50,75.00 L 89.00,75.50 L 89.50,76.00 L 90.00,76.50 L 91.00,76.50 L 91.50,76.00 Z M 88.50,109.00 L 88.50,108.00 L 88.50,107.00 L 88.50,106.00 L 88.50,105.00 L 88.50,104.00 L 88.00,103.50 L 87.50,103.00 L 87.50,102.00 L 87.50,101.00 L 87.50,100.00 L 87.50,99.00 L 87.50,98.00 L 87.50,97.00 L 87.50,96.00 L 87.50,95.00 L 87.50,94.00 L 87.00,93.50 L 86.50,93.00 L 86.50,92.00 L 86.50,91.00 L 86.50,90.00 L 86.50,89.00 L 86.50,88.00 L 86.50,87.00 L 86.50,86.00 L 86.50,85.00 L 86.50,84.00 L 86.00,83.50 L 85.50,83.00 L 85.50,82.00 L 85.50,81.00 L 85.50,80.00 L 85.50,79.00 L 85.50,78.00 L 85.50,77.00 L 85.50,76.00 L 85.50,75.00 L 85.00,74.50 L 84.50,74.00 L 84.00,73.50 L 83.00,73.50 L 82.00,73.50 L 81.00,73.50 L 80.00,73.50 L 79.00,73.50 L 78.00,73.50 L 77.00,73.50 L 76.00,73.50 L 75.00,73.50 L 74.00,73.50 L 73.00,73.50 L 72.00,73.50 L 71.00,73.50 L 70.00,73.50 L 69.00,73.50 L 68.00,73.50 L 67.00,73.50 L 66.00,73.50 L 65.00,73.50 L 64.00,73.50 L 63.00,73.50 L 62.00,73.50 L 61.00,73.50 L 60.00,73.50 L 59.00,73.50 L 58.00,73.50 L 57.00,73.50 L 56.00,73.50 L 55.00,73.50 L 54.00,73.50 L 53.00,73.50 L 52.00,73.50 L 51.00,73.50 L 50.00,73.50 L 49.00,73.50 L 48.00,73.50 L 47.00,73.50 L 46.00,73.50 L 45.00,73.50 L 44.00,73.50 L 43.00,73.50 L 42.50,74.00 L 42.00,74.50 L 41.50,75.00 L 41.50,76.00 L 41.50,77.00 L 41.50,78.00 L 41.50,79.00 L 41.50,80.00 L 41.50,81.00 L 41.50,82.00 L 41.50,83.00 L 41.50,84.00 L 41.00,84.50 L 40.50,85.00 L 40.50,86.00 L 40.50,87.00 L 40.50,88.00 L 40.50,89.00 L 40.50,90.00 L 40.50,91.00 L 40.50,92.00 L 40.50,93.00 L 40.00,93.50 L 39.50,94.00 L 39.50,95.00 L 39.50,96.00 L 39.50,97.00 L 39.50,98.00 L 39.50,99.00 L 39.50,100.00 L 39.50,101.00 L 39.50,102.00 L 39.50,103.00 L 39.00,103.50 L 38.50,104.00 L 38.50,105.00 L 38.50,106.00 L 38.50,107.00 L 38.50,108.00 L 38.50,109.00 L 39.00,109.50 L 40.00,109.50 L 41.00,109.50 L 42.00,109.50 L 43.00,109.50 L 44.00,109.50 L 45.00,109.50 L 46.00,109.50 L 47.00,109.50 L 48.00,109.50 L 49.00,109.50 L 50.00,109.50 L 51.00,109.50 L 52.00,109.50 L 53.00,109.50 L 54.00,109.50 L 55.00,109.50 L 56.00,109.50 L 57.00,109.50 L 58.00,109.50 L 59.00,109.50 L 60.00,109.50 L 61.00,109.50 L 62.00,109.50 L 63.00,109.50 L 64.00,109.50 L 65.00,109.50 L 66.00,109.50 L 67.00,109.50 L 68.00,109.50 L 69.00,109.50 L 70.00,109.50 L 71.00,109.50 L 72.00,109.50 L 73.00,109.50 L 74.00,109.50 L 75.00,109.50 L 76.00,109.50 L 77.00,109.50 L 78.00,109.50 L 79.00,109.50 L 80.00,109.50 L 81.00,109.50 L 82.00,109.50 L 83.00,109.50 L 84.00,109.50 L 85.00,109.50 L 86.00,109.50 L 87.00,109.50 L 88.00,109.50 L 88.50,109.00 Z M 80.00,80.50 L 79.00,80.50 L 78.00,80.50 L 77.00,80.50 L 76.00,80.50 L 75.00,80.50 L 74.00,80.50 L 73.00,80.50 L 72.00,80.50 L 71.00,80.50 L 70.00,80.50 L 69.00,80.50 L 68.00,80.50 L 67.00,80.50 L 66.00,80.50 L 65.00,80.50 L 64.00,80.50 L 63.00,80.50 L 62.00,80.50 L 61.00,80.50 L 60.00,80.50 L 59.00,80.50 L 58.00,80.50 L 57.00,80.50 L 56.00,80.50 L 55.00,80.50 L 54.00,80.50 L 53.00,80.50 L 52.00,80.50 L 51.00,80.50 L 50.00,80.50 L 49.00,80.50 L 48.00,80.50 L 47.00,80.50 L 46.50,80.00 L 46.50,79.00 L 46.50,78.00 L 47.00,77.50 L 48.00,77.50 L 49.00,77.50 L 50.00,77.50 L 51.00,77.50 L 52.00,77.50 L 53.00,77.50 L 54.00,77.50 L 55.00,77.50 L 56.00,77.50 L 57.00,77.50 L 58.00,77.50 L 59.00,77.50 L 60.00,77.50 L 61.00,77.50 L 62.00,77.50 L 63.00,77.50 L 64.00,77.50 L 65.00,77.50 L 66.00,77.50 L 67.00,77.50 L 68.00,77.50 L 69.00,77.50 L 70.00,77.50 L 71.00,77.50 L 72.00,77.50 L 73.00,77.50 L 74.00,77.50 L 75.00,77.50 L 76.00,77.50 L 77.00,77.50 L 78.00,77.50 L 79.00,77.50 L 80.00,77.50 L 80.50,78.00 L 80.50,79.00 L 80.50,80.00 L 80.00,80.50 Z M 80.00,89.50 L 79.00,89.50 L 78.00,89.50 L 77.00,89.50 L 76.00,89.50 L 75.00,89.50 L 74.00,89.50 L 73.00,89.50 L 72.00,89.50 L 71.00,89.50 L 70.00,89.50 L 69.00,89.50 L 68.00,89.50 L 67.00,89.50 L 66.00,89.50 L 65.00,89.50 L 64.00,89.50 L 63.00,89.50 L 62.00,89.50 L 61.00,89.50 L 60.00,89.50 L 59.00,89.50 L 58.00,89.50 L 57.00,89.50 L 56.00,89.50 L 55.00,89.50 L 54.00,89.50 L 53.00,89.50 L 52.00,89.50 L 51.00,89.50 L 50.00,89.50 L 49.00,89.50 L 48.00,89.50 L 47.00,89.50 L 46.50,89.00 L 46.00,88.50 L 45.50,88.00 L 45.50,87.00 L 46.00,86.50 L 47.00,86.50 L 48.00,86.50 L 49.00,86.50 L 50.00,86.50 L 51.00,86.50 L 52.00,86.50 L 53.00,86.50 L 54.00,86.50 L 55.00,86.50 L 56.00,86.50 L 57.00,86.50 L 58.00,86.50 L 59.00,86.50 L 60.00,86.50 L 61.00,86.50 L 62.00,86.50 L 63.00,86.50 L 64.00,86.50 L 65.00,86.50 L 66.00,86.50 L 67.00,86.50 L 68.00,86.50 L 69.00,86.50 L 70.00,86.50 L 71.00,86.50 L 72.00,86.50 L 73.00,86.50 L 74.00,86.50 L 75.00,86.50 L 76.00,86.50 L 77.00,86.50 L 78.00,86.50 L 79.00,86.50 L 80.00,86.50 L 81.00,86.50 L 81.50,87.00 L 81.50,88.00 L 81.00,88.50 L 80.50,89.00 L 80.00,89.50 Z M 81.00,98.50 L 80.00,98.50 L 79.00,98.50 L 78.00,98.50 L 77.00,98.50 L 76.00,98.50 L 75.00,98.50 L 74.00,98.50 L 73.00,98.50 L 72.00,98.50 L 71.00,98.50 L 70.00,98.50 L 69.00,98.50 L 68.00,98.50 L 67.00,98.50 L 66.00,98.50 L 65.00,98.50 L 64.00,98.50 L 63.00,98.50 L 62.00,98.50 L 61.00,98.50 L 60.00,98.50 L 59.00,98.50 L 58.00,98.50 L 57.00,98.50 L 56.00,98.50 L 55.00,98.50 L 54.00,98.50 L 53.00,98.50 L 52.00,98.50 L 51.00,98.50 L 50.00,98.50 L 49.00,98.50 L 48.00,98.50 L 47.00,98.50 L 46.00,98.50 L 45.50,98.00 L 45.00,97.50 L 44.50,97.00 L 44.50,96.00 L 45.00,95.50 L 45.50,95.00 L 46.00,94.50 L 47.00,94.50 L 48.00,94.50 L 49.00,94.50 L 50.00,94.50 L 51.00,94.50 L 52.00,94.50 L 53.00,94.50 L 54.00,94.50 L 55.00,94.50 L 56.00,94.50 L 57.00,94.50 L 58.00,94.50 L 59.00,94.50 L 60.00,94.50 L 61.00,94.50 L 62.00,94.50 L 63.00,94.50 L 64.00,94.50 L 65.00,94.50 L 66.00,94.50 L 67.00,94.50 L 68.00,94.50 L 69.00,94.50 L 70.00,94.50 L 71.00,94.50 L 72.00,94.50 L 73.00,94.50 L 74.00,94.50 L 75.00,94.50 L 76.00,94.50 L 77.00,94.50 L 78.00,94.50 L 79.00,94.50 L 80.00,94.50 L 81.00,94.50 L 81.50,95.00 L 82.00,95.50 L 82.50,96.00 L 82.50,97.00 L 82.00,97.50 L 81.50,98.00 L 81.00,98.50 Z " fill="black" /></svg>